<svg width="20" height="20" viewBox="0 0 20 20" fill="none" xmlns="http://www.w3.org/2000/svg">
<g clip-path="url(#clip0_54_1311)">
<path d="M10.9373 19.375H9.06228C8.90978 19.375 8.77916 19.2644 8.75416 19.1138L8.45728 17.3337C7.93666 17.2244 7.42728 17.0588 6.93791 16.8387L5.65041 18.1056C5.54103 18.2131 5.37041 18.2256 5.24728 18.1356L3.73103 17.0338C3.60791 16.9438 3.56666 16.7781 3.63541 16.6413L4.44166 15.0269C4.07791 14.6262 3.76103 14.1931 3.49603 13.7344L1.71728 14.0019C1.56291 14.0262 1.42041 13.9356 1.37353 13.7894L0.79353 12.0056C0.746655 11.8606 0.81103 11.7025 0.946655 11.6319L2.54853 10.7987C2.51541 10.5069 2.49978 10.2481 2.49978 10C2.49978 9.75187 2.51541 9.49375 2.54916 9.20125L0.94728 8.36875C0.811655 8.29875 0.74728 8.14062 0.794155 7.995L1.37353 6.21125C1.42041 6.06625 1.56166 5.975 1.71728 5.99875L3.49728 6.26562C3.59603 6.09437 3.70291 5.92562 3.81541 5.76312C3.91228 5.62 4.10666 5.58563 4.24916 5.68438C4.39103 5.7825 4.42666 5.97687 4.32853 6.11875C4.18728 6.3225 4.05666 6.53688 3.93916 6.75562C3.87666 6.87125 3.75041 6.93687 3.61728 6.91625L1.88603 6.65625L1.47041 7.93625L3.03041 8.74687C3.14791 8.8075 3.21353 8.93563 3.19603 9.06625C3.14728 9.42375 3.12478 9.72062 3.12478 10C3.12478 10.2794 3.14728 10.5763 3.19541 10.9338C3.21291 11.0644 3.14728 11.1925 3.02978 11.2531L1.46978 12.0644L1.88603 13.3444L3.61728 13.0844C3.74603 13.0631 3.87666 13.1288 3.93916 13.2456C4.23166 13.7894 4.60291 14.2981 5.04353 14.7563C5.13478 14.8513 5.15728 14.9944 5.09791 15.1125L4.31228 16.6838L5.40103 17.475L6.65416 16.2413C6.74853 16.1488 6.89041 16.1263 7.00978 16.1825C7.57478 16.4569 8.17166 16.6512 8.78478 16.7606C8.91478 16.7838 9.01603 16.8862 9.03791 17.0169L9.32728 18.75H10.6723L10.961 17.0175C10.9829 16.8869 11.0842 16.7844 11.2142 16.7612C11.826 16.6519 12.4242 16.4581 12.9904 16.1831C13.1079 16.1262 13.2517 16.1487 13.3454 16.2419L14.5985 17.475L15.6867 16.6838L14.9023 15.1125C14.8429 14.9944 14.8648 14.8519 14.9567 14.7563C15.396 14.2987 15.7679 13.79 16.0604 13.2456C16.1229 13.1294 16.2473 13.0644 16.3823 13.0844L18.1142 13.3438L18.5298 12.0638L16.9698 11.2531C16.8523 11.1925 16.7867 11.0644 16.8042 10.9338C16.8523 10.5763 16.8748 10.2794 16.8748 10C16.8748 9.72062 16.8523 9.42375 16.8042 9.06625C16.7867 8.93563 16.8523 8.8075 16.9698 8.74687L18.5298 7.93562L18.1135 6.65563L16.3823 6.91562C16.2504 6.93375 16.1229 6.87063 16.0604 6.75437C15.7679 6.21063 15.3967 5.70188 14.956 5.24375C14.8648 5.14875 14.8423 5.00563 14.9017 4.8875L15.6873 3.31625L14.5979 2.525L13.3448 3.75875C13.251 3.85125 13.1092 3.875 12.9892 3.8175C12.4242 3.54312 11.8273 3.34875 11.2142 3.23938C11.0842 3.21625 10.9829 3.11375 10.961 2.98312L10.6723 1.25H9.32728L9.03853 2.9825C9.01666 3.11312 8.91541 3.21563 8.78541 3.23875C8.17353 3.34812 7.57541 3.54187 7.00916 3.81687C6.89166 3.87375 6.74853 3.85125 6.65416 3.75813L5.40103 2.52562L4.31228 3.31687L5.09665 4.8875C5.17353 5.04187 5.11103 5.23 4.95666 5.30688C4.80228 5.38438 4.61541 5.32125 4.53791 5.1675L3.63478 3.35938C3.56666 3.2225 3.60728 3.05688 3.73103 2.96688L5.24791 1.86437C5.37041 1.77375 5.54166 1.7875 5.65103 1.89437L6.93853 3.16062C7.42791 2.94063 7.93791 2.775 8.45853 2.66562L8.75541 0.885625C8.77916 0.735625 8.90978 0.625 9.06228 0.625H10.9373C11.0898 0.625 11.2204 0.735625 11.2454 0.88625L11.5423 2.66625C12.0629 2.77562 12.5723 2.94125 13.0617 3.16125L14.3492 1.89437C14.4585 1.7875 14.6292 1.77438 14.7523 1.86437L16.2698 2.96688C16.3929 3.05688 16.4342 3.2225 16.3654 3.35938L15.5592 4.97375C15.9229 5.37437 16.2398 5.8075 16.5048 6.26625L18.2835 5.99875C18.4379 5.975 18.5804 6.06562 18.6273 6.21125L19.2073 7.995C19.2542 8.14 19.1898 8.29813 19.0542 8.36875L17.4523 9.20187C17.4842 9.49312 17.4998 9.75187 17.4998 10C17.4998 10.2481 17.4842 10.5063 17.4504 10.7987L19.0523 11.6313C19.1879 11.7013 19.2523 11.8594 19.2054 12.005L18.626 13.7887C18.5798 13.9344 18.4367 14.0269 18.2823 14.0013L16.5029 13.7344C16.2373 14.1931 15.921 14.6269 15.5579 15.0269L16.3635 16.6406C16.4317 16.7775 16.391 16.9431 16.2679 17.0331L14.751 18.1356C14.6285 18.2256 14.4573 18.2125 14.3479 18.1056L13.0604 16.8394C12.571 17.0594 12.061 17.225 11.5404 17.3344L11.2435 19.1144C11.2204 19.2644 11.0898 19.375 10.9373 19.375ZM9.99978 12.5C8.62103 12.5 7.49978 11.3787 7.49978 10C7.49978 8.62125 8.62103 7.5 9.99978 7.5C11.3785 7.5 12.4998 8.62125 12.4998 10C12.4998 11.3787 11.3785 12.5 9.99978 12.5ZM9.99978 8.125C8.96603 8.125 8.12478 8.96625 8.12478 10C8.12478 11.0337 8.96603 11.875 9.99978 11.875C11.0335 11.875 11.8748 11.0337 11.8748 10C11.8748 8.96625 11.0335 8.125 9.99978 8.125Z" fill="white"/>
<path d="M10 15C7.24313 15 5 12.7569 5 10C5 7.24313 7.24313 5 10 5C12.7569 5 15 7.24313 15 10C15 11.1131 14.6419 12.1675 13.9644 13.0487C13.8594 13.1856 13.6625 13.2106 13.5262 13.1062C13.3894 13.0012 13.3637 12.805 13.4688 12.6681C14.0619 11.8962 14.375 10.9744 14.375 10C14.375 7.58812 12.4119 5.625 10 5.625C7.58812 5.625 5.625 7.58812 5.625 10C5.625 12.4119 7.58812 14.375 10 14.375C10.5175 14.375 11.0262 14.2844 11.5125 14.1062C11.6744 14.0481 11.8544 14.13 11.9138 14.2925C11.9731 14.4544 11.89 14.6337 11.7275 14.6938C11.1725 14.8969 10.5906 15 10 15Z" fill="white"/>
<path d="M12.8125 14.0625C12.9851 14.0625 13.125 13.9226 13.125 13.75C13.125 13.5774 12.9851 13.4375 12.8125 13.4375C12.6399 13.4375 12.5 13.5774 12.5 13.75C12.5 13.9226 12.6399 14.0625 12.8125 14.0625Z" fill="white"/>
</g>
<defs>
<clipPath id="clip0_54_1311">
<rect width="20" height="20" fill="white"/>
</clipPath>
</defs>
</svg>
