<svg width="21" height="20" viewBox="0 0 21 20" fill="none" xmlns="http://www.w3.org/2000/svg">
<g clip-path="url(#clip0_18_1660)">
<path d="M20.3203 15.1171L19.3961 19.0546C19.2663 19.6113 18.7685 20.0007 18.1853 20.0007C8.15674 19.9999 0 11.9843 0 2.12885C0 1.55619 0.39627 1.06635 0.96275 0.939393L4.96957 0.03119C5.55311 -0.101701 6.14936 0.195956 6.39184 0.739002L8.24102 4.97728C8.45718 5.4765 8.31137 6.05814 7.88406 6.40111L5.74391 8.08978C7.09462 10.7937 9.33176 12.9921 12.0841 14.3203L13.8363 12.2187C14.1816 11.7976 14.7779 11.6519 15.2859 11.8681L19.5988 13.6849C20.1176 13.9531 20.4555 14.5468 20.3203 15.1171Z" fill="#808089"/>
</g>
<defs>
<clipPath id="clip0_18_1660">
<rect width="20.3521" height="20" fill="white"/>
</clipPath>
</defs>
</svg>
