<svg width="22" height="21" viewBox="0 0 22 21" fill="none" xmlns="http://www.w3.org/2000/svg">
<path d="M8.50008 19.3333C8.96032 19.3333 9.33341 18.9602 9.33341 18.5C9.33341 18.0398 8.96032 17.6667 8.50008 17.6667C8.03984 17.6667 7.66675 18.0398 7.66675 18.5C7.66675 18.9602 8.03984 19.3333 8.50008 19.3333Z" stroke="#FFC400" stroke-width="2" stroke-linecap="round" stroke-linejoin="round"/>
<path d="M17.6668 19.3333C18.1271 19.3333 18.5002 18.9602 18.5002 18.5C18.5002 18.0398 18.1271 17.6667 17.6668 17.6667C17.2066 17.6667 16.8335 18.0398 16.8335 18.5C16.8335 18.9602 17.2066 19.3333 17.6668 19.3333Z" stroke="#FFC400" stroke-width="2" stroke-linecap="round" stroke-linejoin="round"/>
<path d="M1.8335 1.83333H5.16683L7.40016 12.9917C7.47637 13.3753 7.68509 13.72 7.98978 13.9652C8.29448 14.2105 8.67574 14.3408 9.06683 14.3333H17.1668C17.5579 14.3408 17.9392 14.2105 18.2439 13.9652C18.5486 13.72 18.7573 13.3753 18.8335 12.9917L20.1668 6H6.00016" stroke="#FFC400" stroke-width="2" stroke-linecap="round" stroke-linejoin="round"/>
</svg>
