<svg width="21" height="22" viewBox="0 0 21 22" fill="none" xmlns="http://www.w3.org/2000/svg">
<path d="M8.14286 6.71387H7.07143C6.5 6.71387 6 7.21387 6 7.7853C6 8.35672 6.5 8.85672 7.07143 8.85672C7.64286 8.85672 8.14286 9.35672 8.14286 9.92815C8.14286 10.4996 7.64286 10.9996 7.07143 10.9996H6" stroke="white" stroke-miterlimit="10" stroke-linecap="round" stroke-linejoin="round"/>
<path d="M10.2861 10.9996V7.7853C10.2861 7.21387 10.7861 6.71387 11.3576 6.71387C11.929 6.71387 12.429 7.21387 12.429 7.7853V10.9996" stroke="white" stroke-miterlimit="10" stroke-linecap="round" stroke-linejoin="round"/>
<path d="M10.2861 8.85645H12.429" stroke="white" stroke-miterlimit="10" stroke-linecap="round" stroke-linejoin="round"/>
<path d="M14.5713 6.71387V10.9996H16.7141" stroke="white" stroke-miterlimit="10" stroke-linecap="round" stroke-linejoin="round"/>
<path d="M20.286 6.71387H18.8574V10.9996H20.286" stroke="white" stroke-miterlimit="10" stroke-linecap="round" stroke-linejoin="round"/>
<path d="M20.286 8.85645H18.8574" stroke="white" stroke-miterlimit="10" stroke-linecap="round" stroke-linejoin="round"/>
<path d="M17.4286 13.8571L5.28571 21L8.85714 13.8571H1L6.71429 1H18.1429L16 4.57143" stroke="white" stroke-miterlimit="10" stroke-linecap="round" stroke-linejoin="round"/>
</svg>
