<svg width="20" height="20" viewBox="0 0 20 20" fill="none" xmlns="http://www.w3.org/2000/svg">
<path d="M5.83366 18.9583C6.75413 18.9583 7.50033 18.2121 7.50033 17.2917C7.50033 16.3712 6.75413 15.625 5.83366 15.625C4.91318 15.625 4.16699 16.3712 4.16699 17.2917C4.16699 18.2121 4.91318 18.9583 5.83366 18.9583Z" fill="white"/>
<path d="M17.4997 18.9583C18.4201 18.9583 19.1663 18.2121 19.1663 17.2917C19.1663 16.3712 18.4201 15.625 17.4997 15.625C16.5792 15.625 15.833 16.3712 15.833 17.2917C15.833 18.2121 16.5792 18.9583 17.4997 18.9583Z" fill="white"/>
<path d="M10.833 6.4585H6.66634C6.2061 6.4585 5.83301 6.83159 5.83301 7.29183V11.4585C5.83301 11.9187 6.2061 12.2918 6.66634 12.2918H10.833C11.2932 12.2918 11.6663 11.9187 11.6663 11.4585V7.29183C11.6663 6.83159 11.2932 6.4585 10.833 6.4585Z" fill="white"/>
<path d="M17.917 6.4585H13.7503C13.2901 6.4585 12.917 6.83159 12.917 7.29183V11.4585C12.917 11.9187 13.2901 12.2918 13.7503 12.2918H17.917C18.3772 12.2918 18.7503 11.9187 18.7503 11.4585V7.29183C18.7503 6.83159 18.3772 6.4585 17.917 6.4585Z" fill="white"/>
<path d="M15.0003 1.0415H10.0003C9.54009 1.0415 9.16699 1.4146 9.16699 1.87484V4.37484C9.16699 4.83507 9.54009 5.20817 10.0003 5.20817H15.0003C15.4606 5.20817 15.8337 4.83507 15.8337 4.37484V1.87484C15.8337 1.4146 15.4606 1.0415 15.0003 1.0415Z" fill="white"/>
<path d="M19.1667 13.5415H4.58333V3.5415C4.58333 3.52984 4.57667 3.519 4.57583 3.50734C4.575 3.49567 4.58333 3.48484 4.58333 3.47234C4.58289 3.1593 4.45834 2.8592 4.23699 2.63785C4.01563 2.4165 3.71554 2.29194 3.4025 2.2915H0.833333C0.61232 2.2915 0.400358 2.3793 0.244078 2.53558C0.0877974 2.69186 0 2.90382 0 3.12484C0 3.34585 0.0877974 3.55781 0.244078 3.71409C0.400358 3.87037 0.61232 3.95817 0.833333 3.95817H2.91667V13.5415C2.91667 13.9835 3.09226 14.4075 3.40482 14.72C3.71738 15.0326 4.14131 15.2082 4.58333 15.2082H19.1667C19.3877 15.2082 19.5996 15.1204 19.7559 14.9641C19.9122 14.8078 20 14.5959 20 14.3748C20 14.1538 19.9122 13.9419 19.7559 13.7856C19.5996 13.6293 19.3877 13.5415 19.1667 13.5415Z" fill="white"/>
</svg>
