<svg width="26" height="24" viewBox="0 0 26 24" fill="none" xmlns="http://www.w3.org/2000/svg">
<path d="M21.8537 6.10777C22.3144 6.10777 22.6878 5.73431 22.6878 5.27361C22.6878 4.81292 22.3144 4.43945 21.8537 4.43945C21.393 4.43945 21.0195 4.81292 21.0195 5.27361C21.0195 5.73431 21.393 6.10777 21.8537 6.10777Z" stroke="white" stroke-linecap="round" stroke-linejoin="round"/>
<path d="M18.7803 7.98535C18.7801 8.01492 18.7561 8.03885 18.7266 8.03906C18.7042 8.03906 18.685 8.02527 18.6768 8.00586L18.6719 7.98535C18.6719 7.95548 18.6967 7.93066 18.7266 7.93066L18.7471 7.93555C18.7665 7.94376 18.7803 7.96295 18.7803 7.98535Z" fill="white" stroke="white"/>
<path d="M6.68457 4.23145C6.68436 4.26101 6.66043 4.28495 6.63086 4.28516C6.60846 4.28516 6.58927 4.27136 6.58105 4.25195L6.57617 4.23145C6.57617 4.20157 6.60098 4.17676 6.63086 4.17676L6.65137 4.18164C6.67078 4.18986 6.68457 4.20905 6.68457 4.23145Z" fill="white" stroke="white"/>
<path d="M22.2434 20.7061H25.1905V16.3205L22.2709 14.867L20.3841 11.1133H16.0869" stroke="white" stroke-linecap="round" stroke-linejoin="round"/>
<path d="M8.37109 20.7061H18.1791" stroke="white" stroke-linecap="round" stroke-linejoin="round"/>
<path d="M4.23152 8.19336H1V20.7057H4.29241" stroke="white" stroke-linecap="round" stroke-linejoin="round"/>
<path d="M16.0155 18.6203V8.19336H13.1631" stroke="white" stroke-linecap="round" stroke-linejoin="round"/>
<path d="M17.6826 16.5352H18.5168" stroke="white" stroke-linecap="round" stroke-linejoin="round"/>
<path d="M20.2194 23.0003C21.3135 23.0003 22.2005 22.1134 22.2005 21.0192C22.2005 19.9251 21.3135 19.0381 20.2194 19.0381C19.1253 19.0381 18.2383 19.9251 18.2383 21.0192C18.2383 22.1134 19.1253 23.0003 20.2194 23.0003Z" stroke="white" stroke-linecap="round" stroke-linejoin="round"/>
<path d="M6.31413 23.0003C7.40827 23.0003 8.29525 22.1134 8.29525 21.0192C8.29525 19.9251 7.40827 19.0381 6.31413 19.0381C5.21998 19.0381 4.33301 19.9251 4.33301 21.0192C4.33301 22.1134 5.21998 23.0003 6.31413 23.0003Z" stroke="white" stroke-linecap="round" stroke-linejoin="round"/>
<path d="M10.593 13.6162H9.3418V16.1187H10.593" stroke="white" stroke-linecap="round" stroke-linejoin="round"/>
<path d="M10.593 14.8672H9.3418" stroke="white" stroke-linecap="round" stroke-linejoin="round"/>
<path d="M13.096 13.6162H11.8447V16.1187H13.096" stroke="white" stroke-linecap="round" stroke-linejoin="round"/>
<path d="M13.096 14.8672H11.8447" stroke="white" stroke-linecap="round" stroke-linejoin="round"/>
<path d="M5.17115 13.6162H3.91992V16.1187" stroke="white" stroke-linecap="round" stroke-linejoin="round"/>
<path d="M5.17115 14.8672H3.91992" stroke="white" stroke-linecap="round" stroke-linejoin="round"/>
<path d="M6.42188 16.1182V13.6157H7.52459C7.67459 13.6157 7.81845 13.6753 7.92451 13.7814C8.03058 13.8875 8.09017 14.0313 8.09019 14.1813V14.3014C8.09017 14.4514 8.03058 14.5952 7.92451 14.7013C7.81845 14.8074 7.67459 14.867 7.52459 14.867H6.83895L8.09019 16.1182" stroke="white" stroke-linecap="round" stroke-linejoin="round"/>
<path d="M12.9097 7.67255L11.2693 5.62206C11.146 5.46072 10.9699 5.34789 10.7718 5.30332C10.5737 5.25876 10.3663 5.28529 10.1858 5.37828C10.0796 5.43718 9.98749 5.51855 9.91598 5.6167C9.84448 5.71485 9.79526 5.82743 9.77175 5.94657C9.74824 6.06571 9.75102 6.18855 9.77989 6.3065C9.80875 6.42446 9.86301 6.5347 9.93888 6.62952L10.5228 7.35941H5.16814C4.94691 7.35941 4.73474 7.44729 4.5783 7.60373C4.42187 7.76016 4.33398 7.97233 4.33398 8.19357C4.33398 8.4148 4.42187 8.62697 4.5783 8.78341C4.73474 8.93984 4.94691 9.02773 5.16814 9.02773H10.523L9.97367 9.71432C9.8281 9.89251 9.758 10.1206 9.77833 10.3497C9.79866 10.5789 9.90782 10.7911 10.0825 10.9408C10.2557 11.0737 10.474 11.1333 10.6907 11.107C10.9073 11.0807 11.1051 10.9705 11.2414 10.8001L12.9097 8.71471C13.028 8.5668 13.0925 8.38304 13.0925 8.19363C13.0925 8.00422 13.028 7.82046 12.9097 7.67255Z" stroke="white" stroke-linecap="round" stroke-linejoin="round"/>
<path d="M13.512 1.10352L12.2607 2.35475" stroke="white" stroke-linecap="round" stroke-linejoin="round"/>
<path d="M12.2607 1.10352L13.512 2.35475" stroke="white" stroke-linecap="round" stroke-linejoin="round"/>
<path d="M16.0146 14.8672H22.2708" stroke="white" stroke-linejoin="round"/>
<path d="M1 19.0376H25.1905" stroke="white" stroke-linejoin="round"/>
</svg>
